<?xml version="1.0" encoding="iso-8859-1"?>
<!-- Uploaded to: SVG Repo, www.svgrepo.com, Generator: SVG Repo Mixer Tools -->
<!DOCTYPE svg PUBLIC "-//W3C//DTD SVG 1.1//EN" "http://www.w3.org/Graphics/SVG/1.1/DTD/svg11.dtd">
<svg fill="#000000" height="800px" width="800px" version="1.1" id="Capa_1" xmlns="http://www.w3.org/2000/svg" xmlns:xlink="http://www.w3.org/1999/xlink" 
	 viewBox="0 0 315.107 315.107" xml:space="preserve">
<g>
	<path d="M25.105,110.34h49.809c5.522,0,10-4.477,10-10V38.648c0-5.523-4.478-10-10-10H25.105c-12.066,0-21.883,9.817-21.883,21.884
		v37.925C3.223,100.523,13.039,110.34,25.105,110.34z M23.223,50.532c0-1.039,0.845-1.884,1.883-1.884h39.809V90.34H25.105
		c-1.038,0-1.883-0.845-1.883-1.883V50.532z"/>
	<path d="M293.225,28.648H248.02c-5.522,0-10,4.477-10,10v61.692c0,5.523,4.478,10,10,10h45.205
		c12.066,0,21.883-9.817,21.883-21.883V50.532C315.107,38.465,305.291,28.648,293.225,28.648z M295.107,88.457
		c0,1.039-0.845,1.883-1.883,1.883H258.02V48.648h35.205c1.038,0,1.883,0.845,1.883,1.884V88.457z"/>
	<path d="M103.458,110.34h116.018c5.522,0,10-4.477,10-10V38.648c0-5.523-4.478-10-10-10H103.458c-5.522,0-10,4.477-10,10v61.692
		C93.458,105.863,97.936,110.34,103.458,110.34z M113.458,48.648h96.018V90.34h-96.018V48.648z"/>
	<path d="M21.883,198.399h112.421c5.522,0,10-4.477,10-10v-61.691c0-5.523-4.478-10-10-10H21.883C9.816,116.708,0,126.525,0,138.591
		v37.925C0,188.583,9.816,198.399,21.883,198.399z M20,138.591c0-1.039,0.845-1.883,1.883-1.883h102.421v41.691H21.883
		c-1.038,0-1.883-0.845-1.883-1.883V138.591z"/>
	<path d="M293.225,116.708H162.849c-5.522,0-10,4.477-10,10v61.691c0,5.523,4.478,10,10,10h130.376
		c12.066,0,21.883-9.817,21.883-21.883v-37.925C315.107,126.525,305.291,116.708,293.225,116.708z M295.107,176.516
		c0,1.039-0.845,1.883-1.883,1.883H172.849v-41.691h120.376c1.038,0,1.883,0.845,1.883,1.883V176.516z"/>
	<path d="M74.914,204.768H25.105c-12.066,0-21.883,9.817-21.883,21.883v37.925c0,12.067,9.816,21.884,21.883,21.884h49.809
		c5.522,0,10-4.477,10-10v-61.692C84.914,209.245,80.437,204.768,74.914,204.768z M64.914,266.459H25.105
		c-1.038,0-1.883-0.845-1.883-1.884v-37.925c0-1.039,0.845-1.883,1.883-1.883h39.809V266.459z"/>
	<path d="M293.225,204.768H248.94c-5.522,0-10,4.477-10,10v61.692c0,5.523,4.478,10,10,10h44.284
		c12.066,0,21.883-9.817,21.883-21.884v-37.925C315.107,214.584,305.291,204.768,293.225,204.768z M295.107,264.576
		c0,1.039-0.845,1.884-1.883,1.884H258.94v-41.692h34.284c1.038,0,1.883,0.845,1.883,1.883V264.576z"/>
	<path d="M219.476,204.768H102.537c-5.522,0-10,4.477-10,10v61.692c0,5.523,4.478,10,10,10h116.938c5.522,0,10-4.477,10-10v-61.692
		C229.476,209.245,224.998,204.768,219.476,204.768z M209.476,266.459h-96.938v-41.692h96.938V266.459z"/>
</g>
</svg>